gui_paths_subject3_squats1_v3
version=1
nRows=17
nColumns=56
inDegrees=no
endheader
time	pelvis_tilt	pelvis_list	pelvis_rotation	pelvis_tx	pelvis_ty	pelvis_tz	hip_flexion_r	hip_adduction_r	hip_rotation_r	knee_angle_r	ankle_angle_r	subtalar_angle_r	mtp_angle_r	hip_flexion_l	hip_adduction_l	hip_rotation_l	knee_angle_l	ankle_angle_l	subtalar_angle_l	mtp_angle_l	lumbar_extension	lumbar_bending	lumbar_rotation	arm_flex_r	arm_add_r	arm_rot_r	elbow_flex_r	pro_sup_r	wrist_flex_r	wrist_dev_r	arm_flex_l	arm_add_l	arm_rot_l	elbow_flex_l	pro_sup_l	wrist_flex_l	wrist_dev_l	knee_angle_r_beta	knee_angle_l_beta	/forceset/M0_r/activation	/forceset/M1_r/activation	/forceset/M2_r/activation	/forceset/M3_r/activation	/forceset/M4_r/activation	/forceset/M5_r/activation	/forceset/M6_r/activation	/forceset/M7_r/activation	/forceset/M0_l/activation	/forceset/M1_l/activation	/forceset/M2_l/activation	/forceset/M3_l/activation	/forceset/M4_l/activation	/forceset/M5_l/activation	/forceset/M6_l/activation	/forceset/M7_l/activation
3.04505495	-0.64364491	0.01134010	-0.06693383	-0.32739319	0.67080243	-0.62392212	1.58337311	-0.26836346	-0.06827720	1.44972288	0.42627653	-0.01231940	0.00000720	1.60522559	-0.39441890	-0.05920818	1.46519706	0.43367640	0.00345376	-0.00001527	0.01920298	0.01130239	-0.06772868	0.79204913	-0.47672676	0.67378338	2.42825334	1.01765699	0.00045376	-0.00005525	0.70720225	-0.60369384	0.61488023	2.44809108	1.02159427	0.00085960	0.00030937	1.44972288	1.46519706	0.00000000	0.00000000	0.14553094	0.15824333	0.87310865	0.00000000	0.56682720	1.00000000	0.00000000	0.00000000	0.03347588	0.10163754	1.00000000	0.00000000	0.65629102	0.73153629
3.05494505	-0.64921418	0.01125118	-0.06789717	-0.32954326	0.66479069	-0.62372999	1.60397296	-0.26902068	-0.06533271	1.46768783	0.42939754	-0.01231940	0.00000720	1.62732736	-0.39650895	-0.05131614	1.48369888	0.43643739	0.00345376	-0.00001527	0.01582147	0.01139368	-0.06537000	0.80583480	-0.47489783	0.67141602	2.42831329	1.01766410	0.00045376	-0.00005525	0.72288675	-0.60206242	0.61498745	2.44686651	1.02159070	0.00085960	0.00030937	1.46768783	1.48369888	0.00000000	0.00000000	0.14156061	0.16330175	0.89697625	0.00000000	0.57045656	1.00000000	0.00000000	0.00000000	0.02781815	0.11749334	1.00000000	0.00000000	0.63339381	0.70206944
3.06483516	-0.65477652	0.01169372	-0.06880765	-0.33159983	0.65886276	-0.62359555	1.62453701	-0.27035825	-0.06208325	1.48533147	0.43228548	-0.01231940	0.00000720	1.64875754	-0.39842741	-0.04439117	1.50173920	0.43911073	0.00345376	-0.00001527	0.01281978	0.01103978	-0.06327543	0.81946618	-0.47386008	0.67021393	2.42845564	1.01767120	0.00045376	-0.00005525	0.73790835	-0.60019155	0.61504210	2.44586672	1.02158707	0.00085960	0.00030937	1.48533147	1.50173920	0.00000000	0.00000000	0.13709884	0.16783116	0.92253974	0.00000000	0.57466409	1.00000000	0.00000000	0.00000000	0.02347416	0.13348480	1.00000000	0.00000000	0.60958312	0.67110058
3.07472527	-0.65937103	0.01204359	-0.07004845	-0.33356410	0.65312092	-0.62346581	1.64366255	-0.27152817	-0.05890751	1.50247690	0.43513319	-0.01231940	0.00000720	1.66876214	-0.40071340	-0.03785614	1.51934095	0.44220321	0.00345376	-0.00001527	0.00878364	0.01083206	-0.06127338	0.83337989	-0.47329605	0.67041513	2.42862907	1.01767829	0.00045376	-0.00005525	0.75225465	-0.59761388	0.61358233	2.44549394	1.02158341	0.00085960	0.00030937	1.50247690	1.51934095	0.00000000	0.00000000	0.13187279	0.17226024	0.94911569	0.00000000	0.57906362	1.00000000	0.00000000	0.00000000	0.02056253	0.14950140	1.00000000	0.00000000	0.58501492	0.63875785
3.08461538	-0.66266561	0.01195278	-0.07186745	-0.33546163	0.64761782	-0.62328372	1.66070874	-0.27184731	-0.05623333	1.51878821	0.43798445	-0.01231940	0.00000720	1.68722916	-0.40351752	-0.03097685	1.53649245	0.44564323	0.00345376	-0.00001527	0.00311038	0.01101769	-0.05878611	0.84743772	-0.47289322	0.67098782	2.42889902	1.01768537	0.00045376	-0.00005525	0.76658201	-0.59462995	0.61115434	2.44535107	1.02157970	0.00085960	0.00030937	1.51878821	1.53649245	0.00000000	0.00000000	0.12565441	0.17704037	0.97600608	0.00000000	0.58325161	1.00000000	0.00000000	0.00000000	0.01906707	0.16548266	1.00000000	0.00000000	0.55985205	0.60526503
3.09450549	-0.66497278	0.01200167	-0.07378671	-0.33729763	0.64232905	-0.62306953	1.67627133	-0.27194903	-0.05373538	1.53429685	0.44092755	-0.01231940	0.00000720	1.70412797	-0.40620815	-0.02428747	1.55298829	0.44897873	0.00345376	-0.00001527	-0.00372278	0.01082972	-0.05581269	0.86100125	-0.47263252	0.67073458	2.42933782	1.01769244	0.00045376	-0.00005525	0.78150157	-0.59217745	0.60989881	2.44490984	1.02157594	0.00085960	0.00030937	1.53429685	1.55298829	0.00000000	0.00000000	0.11751755	0.18389261	1.00000000	0.00000000	0.58515109	1.00000000	0.00000000	0.00000000	0.01882038	0.18145801	1.00000000	0.00000000	0.53421489	0.57088237
3.10439560	-0.66686674	0.01272655	-0.07516277	-0.33906253	0.63718753	-0.62285379	1.69133863	-0.27269747	-0.05087023	1.54935960	0.44409479	-0.01231940	0.00000720	1.71970243	-0.40826932	-0.01857527	1.56862097	0.45187981	0.00345376	-0.00001527	-0.01077938	0.00957687	-0.05299494	0.87351503	-0.47234108	0.66926003	2.42977727	1.01769949	0.00045376	-0.00005525	0.79698710	-0.59073555	0.61059295	2.44414535	1.02157213	0.00085960	0.00030937	1.54935960	1.56862097	0.00000000	0.01520644	0.09701802	0.20532606	1.00000000	0.00000000	0.57337631	1.00000000	0.00000000	0.00000000	0.01950495	0.19757047	1.00000000	0.00000000	0.50815872	0.53588859
3.11428571	-0.66888653	0.01385187	-0.07598124	-0.34076749	0.63213785	-0.62261012	1.70645802	-0.27384192	-0.04760747	1.56414923	0.44738605	-0.01231940	0.00000720	1.73476501	-0.41001404	-0.01363591	1.58344080	0.45432837	0.00345376	-0.00001527	-0.01734671	0.00757174	-0.05081363	0.88500769	-0.47173272	0.66727749	2.43008755	1.01770652	0.00045376	-0.00005525	0.81253948	-0.58983465	0.61180487	2.44338782	1.02156827	0.00085960	0.00030937	1.56414923	1.58344080	0.00000000	0.04106080	0.07246770	0.22919964	1.00000000	0.00000000	0.56267106	1.00000000	0.00000000	0.00000000	0.02069498	0.21408363	1.00000000	0.00000000	0.48167505	0.50060558
3.12417582	-0.67132355	0.01490214	-0.07670695	-0.34244273	0.62716644	-0.62230092	1.72170480	-0.27446886	-0.04415217	1.57850275	0.45039807	-0.01231940	0.00000720	1.75005465	-0.41200753	-0.00880925	1.59765402	0.45644210	0.00345376	-0.00001527	-0.02321895	0.00546676	-0.04916955	0.89593675	-0.47085109	0.66591983	2.43048535	1.01771354	0.00045376	-0.00005525	0.82772544	-0.58897776	0.61221802	2.44296519	1.02156438	0.00085960	0.00030937	1.57850275	1.59765402	0.00000000	0.06671093	0.04719667	0.25430633	1.00000000	0.00000000	0.55121338	1.00000000	0.00000000	0.00000000	0.02187824	0.23136648	1.00000000	0.00000000	0.45471481	0.46543928
3.13406593	-0.67415867	0.01584118	-0.07751826	-0.34410467	0.62228946	-0.62194791	1.73702984	-0.27435345	-0.04050762	1.59231390	0.45274742	-0.01231940	0.00000720	1.76560404	-0.41411427	-0.00387631	1.61136191	0.45827652	0.00345376	-0.00001527	-0.02853145	0.00344036	-0.04781136	0.90664266	-0.46993620	0.66556792	2.43118510	1.01772055	0.00045376	-0.00005525	0.84255425	-0.58842811	0.61241398	2.44296629	1.02156043	0.00085960	0.00030937	1.59231390	1.61136191	0.00000000	0.09252890	0.02120548	0.28101609	1.00000000	0.00000000	0.53876094	1.00000000	0.00000000	0.00000000	0.02251323	0.24983917	1.00000000	0.00000000	0.42716807	0.43075183
3.14395604	-0.67687818	0.01679902	-0.07785937	-0.34573447	0.61755391	-0.62165442	1.75203158	-0.27454437	-0.03662819	1.60579487	0.45448340	-0.01231940	0.00000720	1.78060368	-0.41533168	0.00091906	1.62448775	0.45985687	0.00345376	-0.00001527	-0.03391887	0.00146230	-0.04709358	0.91733431	-0.46895873	0.66575248	2.43200386	1.01772754	0.00045376	-0.00005525	0.85735536	-0.58865989	0.61358566	2.44335107	1.02155643	0.00085960	0.00030937	1.60579487	1.62448775	0.00000000	0.11066443	0.00000000	0.30907211	1.00000000	0.00000000	0.52144016	0.99324475	0.00000000	0.00000000	0.02211136	0.26994810	1.00000000	0.00000000	0.39881099	0.39671488
3.15384615	-0.67874167	0.01766133	-0.07700705	-0.34730051	0.61302123	-0.62154759	1.76596647	-0.27633310	-0.03262623	1.61917696	0.45606632	-0.01231940	0.00000720	1.79412282	-0.41470947	0.00538163	1.63699490	0.46127068	0.00345376	-0.00001527	-0.04030946	-0.00015601	-0.04771743	0.92835931	-0.46784856	0.66612899	2.43273495	1.01773451	0.00045376	-0.00005525	0.87228482	-0.58938319	0.61543857	2.44409233	1.02155240	0.00085960	0.00030937	1.61917696	1.63699490	0.00000000	0.09350719	0.00000000	0.33761271	1.00000000	0.00000000	0.48562570	0.95438974	0.00000000	0.00000000	0.02026530	0.29213910	1.00000000	0.00000000	0.36925167	0.36315857
3.16373626	-0.67959748	0.01813743	-0.07502820	-0.34879601	0.60871052	-0.62166258	1.77849202	-0.27976026	-0.02876324	1.63231685	0.45791515	-0.01231940	0.00000720	1.80619952	-0.41236466	0.00977411	1.64904262	0.46261569	0.00345376	-0.00001527	-0.04792752	-0.00088182	-0.04961618	0.93996673	-0.46694974	0.66699976	2.43356628	1.01774148	0.00045376	-0.00005525	0.88712310	-0.58979977	0.61676491	2.44502663	1.02154831	0.00085960	0.00030937	1.63231685	1.64904262	0.00000000	0.07616664	0.00000000	0.36885856	1.00000000	0.00000000	0.44748875	0.91486197	0.00000000	0.00000000	0.01666377	0.31683009	1.00000000	0.00000000	0.33792254	0.32951831
3.17362637	-0.67997705	0.01807714	-0.07280278	-0.35023311	0.60459417	-0.62189336	1.78988040	-0.28360635	-0.02534459	1.64480074	0.46006563	-0.01231940	0.00000720	1.81764462	-0.40944761	0.01448944	1.66076222	0.46397225	0.00345376	-0.00001527	-0.05606294	-0.00059943	-0.05176441	0.95184646	-0.46666444	0.66874474	2.43471517	1.01774843	0.00045376	-0.00005525	0.90166708	-0.58975033	0.61773311	2.44576778	1.02154418	0.00085960	0.00030937	1.64480074	1.66076222	0.00000000	0.05785448	0.00000000	0.40288197	1.00000000	0.00000000	0.40669305	0.87428108	0.00000000	0.00000000	0.01110790	0.34437823	1.00000000	0.00000000	0.30413532	0.29489968
3.18351648	-0.68035981	0.01770386	-0.07107269	-0.35161801	0.60065305	-0.62208859	1.80055170	-0.28673315	-0.02236062	1.65640754	0.46222373	-0.01231940	0.00000720	1.82886736	-0.40710805	0.01929105	1.67202790	0.46540818	0.00345376	-0.00001527	-0.06399914	0.00008269	-0.05331185	0.96327551	-0.46682471	0.67110032	2.43601124	1.01775537	0.00045376	-0.00005525	0.91605075	-0.58983109	0.61981189	2.44603946	1.02154000	0.00085960	0.00030937	1.65640754	1.67202790	0.00000000	0.03745472	0.00000000	0.43966275	1.00000000	0.00000000	0.36289886	0.83218175	0.00000000	0.00000000	0.00355332	0.37503859	1.00000000	0.00000000	0.26717439	0.25820540
3.19340659	-0.68077271	0.01722712	-0.06993881	-0.35296290	0.59690396	-0.62217650	1.81066995	-0.28879888	-0.01961935	1.66725621	0.46410361	-0.01231940	0.00000720	1.83977167	-0.40566139	0.02386795	1.68266389	0.46680095	0.00345376	-0.00001527	-0.07171287	0.00064882	-0.05434515	0.97397653	-0.46678334	0.67344546	2.43710978	1.01776229	0.00045376	-0.00005525	0.93045756	-0.59044750	0.62315627	2.44615462	1.02153579	0.00085960	0.00030937	1.66725621	1.68266389	0.00000000	0.01380456	0.00000000	0.47904298	1.00000000	0.00000000	0.31588882	0.78815942	0.00000000	0.00000000	0.00000000	0.40918996	1.00000000	0.00000000	0.22487151	0.21524076
3.20329670	-0.68133949	0.01605295	-0.06966689	-0.35430673	0.59334981	-0.62212326	1.82017292	-0.28937664	-0.01785406	1.67738276	0.46557522	-0.01231940	0.00000720	1.85109126	-0.40517516	0.02947571	1.69276011	0.46772125	0.00345376	-0.00001527	-0.07923950	0.00175653	-0.05487288	0.98438460	-0.46610359	0.67556296	2.43786490	1.01776920	0.00045376	-0.00005525	0.94474561	-0.59147965	0.62605923	2.44678458	1.02153153	0.00085960	0.00030937	1.67738276	1.69276011	0.00000000	0.00000000	0.00000000	0.52075624	1.00000000	0.00000000	0.27103512	0.75021860	0.00000000	0.00000000	0.00000000	0.50142721	0.89598193	0.00000000	0.08663962	0.08731122
